# generated from PmQm by Jehee Lee
:FULLY-SPECIFIED
:DEGREES
172
root 120.6317833 38.165 -95.68724703 0.07709931947 39.59123973 -1.96841494
RightUpLeg -24.23688652 7.439931422 7.531884412
RightLeg -3.756911303 0 0
RightFoot 15.51450525 9.217850149 -1.415859812
RightToes 2.32829e-010 -1.59028e-015 9.93923e-017
Spine -10.9399 -6.41197 -5.48148
Spine1 13.8472 -8.17579 6.99416
HEad -8.70126 5.58694 0.205254
LeftShoulder1 9.93923e-017 0 1.22299e-017
LeftArm 29.0531 20.3477 -79.6497
LeftForeArm -50.8804 -25.8241 16.4731
LeftHand 0.855054 6.00922 -1.12265
RightShoulder 1.98785e-016 -4.96962e-017 1.55301e-017
RightArm 8.52088 -61.6776 75.5044
RightForeArm -25.8572 15.2745 -0.718439
RightHand 1.12223 -10.8038 -3.2164
LeftUpLeg 5.291988466 1.562191454 2.141661133
LeftLeg 31.90733727 0 0
LeftFoot -19.43452675 25.55763494 -36.7824547
LeftToes 8.82235e-011 9.04645e-011 1.87288e-011
173
root 121.1316742 38.0808 -94.17626236 -1.774164137 35.40966271 -4.743234098
RightUpLeg -21.68904162 8.723526908 12.48279755
RightLeg -3.756911303 0 0
RightFoot 19.58701529 13.97302179 -3.84989301
RightToes 2.32829e-010 -1.59028e-015 9.93923e-017
Spine -10.1178 -6.00399 -1.72661
Spine1 13.3684 -7.93258 6.7795
HEad -9.08561 4.90566 -0.295565
LeftShoulder1 9.93923e-017 0 1.22299e-017
LeftArm 24.5905 24.621 -81.2319
LeftForeArm -46.0359 -23.8681 12.0075
LeftHand 0.858088 6.00119 -1.52961
RightShoulder 1.98785e-016 -4.96962e-017 1.55301e-017
RightArm 7.0644 -60.6268 77.2965
RightForeArm -26.1256 15.4337 -1.01533
RightHand 1.12325 -10.7692 -3.33988
LeftUpLeg 4.722888854 -0.5613201111 5.728625819
LeftLeg 37.65267073 0 0
LeftFoot -12.9674549 29.00802599 -47.27587995
LeftToes 8.82235e-011 9.04645e-011 1.87288e-011
174
root 121.5786047 37.9969 -92.81124836 -3.215559247 31.13609141 -7.066877606
RightUpLeg -18.64984354 8.380642241 17.44072839
RightLeg -3.756911303 0 0
RightFoot 19.29612779 19.37987777 -5.373170973
RightToes 2.32829e-010 -1.59028e-015 9.93923e-017
Spine -8.85864 -5.1147 2.15902
Spine1 13.2645 -6.98564 6.37604
HEad -10.1836 3.71447 -0.298579
LeftShoulder1 9.93923e-017 0 1.22299e-017
LeftArm 13.6046 27.8414 -82.5725
LeftForeArm -33.7381 -20.3283 4.26896
LeftHand 0.85281 5.94591 -1.68942
RightShoulder 1.98785e-016 -4.96962e-017 1.55301e-017
RightArm 4.79104 -57.8585 79.5258
RightForeArm -25.3247 15.0762 -0.454751
RightHand 1.12097 -10.7754 -3.21477
LeftUpLeg 3.325026318 -2.19549405 10.17308025
LeftLeg 44.69946192 0 0
LeftFoot -1.264015581 32.69593433 -54.04983997
LeftToes 8.82235e-011 9.04645e-011 1.87288e-011
175
root 121.9852973 37.9889 -91.55620072 -3.848842901 27.1191748 -8.246892552
RightUpLeg -15.43754342 7.664009402 20.97567113
RightLeg -3.756911303 0 0
RightFoot 16.94737602 24.15513833 -6.885168834
RightToes 2.32829e-010 -1.59028e-015 9.93923e-017
Spine -7.82617 -4.18321 4.85693
Spine1 13.5892 -5.81217 5.89013
HEad -11.1141 2.29806 0.547046
LeftShoulder1 9.93923e-017 0 1.22299e-017
LeftArm 2.37092 30.3708 -83.2703
LeftForeArm -21.1373 -14.5294 -2.58577
LeftHand 0.879318 6.09409 -2.61043
RightShoulder 1.98785e-016 -4.96962e-017 1.55301e-017
RightArm 3.13328 -53.2422 81.7141
RightForeArm -23.927 14.2745 0.861444
RightHand 1.12761 -10.7757 -3.38363
LeftUpLeg -1.954820406 -3.263484898 11.32584467
LeftLeg 54.27444031 1.701784413 4.794161607
LeftFoot 5.769966331 36.94435731 -45.24160607
LeftToes 8.82235e-011 9.04645e-011 1.87288e-011
176
root 122.3938754 38.2368 -90.29469754 -3.684710747 23.30966493 -8.132854454
RightUpLeg -12.27442968 7.74473532 22.60239866
RightLeg -3.756911303 0 0
RightFoot 14.50822289 27.83112444 -8.401443236
RightToes 2.32829e-010 -1.59028e-015 9.93923e-017
Spine -7.471 -3.38381 6.01816
Spine1 13.8059 -4.71277 5.16031
HEad -10.7382 0.819757 1.88153
LeftShoulder1 9.93923e-017 0 1.22299e-017
LeftArm -1.51826 33.0471 -83.3931
LeftForeArm -15.0812 -9.44565 -6.17775
LeftHand 0.93976 6.5249 -4.42647
RightShoulder 1.98785e-016 -4.96962e-017 1.55301e-017
RightArm 4.08717 -48.0352 83.6402
RightForeArm -24.1846 14.0368 1.48387
RightHand 1.15347 -10.7282 -4.27077
LeftUpLeg -7.610223535 -4.56100287 10.75225382
LeftLeg 61.41223271 2.342772191 9.801897458
LeftFoot 8.788461278 34.32817465 -37.92004739
LeftToes 8.82235e-011 9.04645e-011 1.87288e-011
177
root 122.8204453 38.6402 -88.99954335 -3.0816183 19.24218848 -7.138475326
RightUpLeg -9.124628173 7.451775793 23.05578535
RightLeg -3.756911303 0 0
RightFoot 12.01116287 31.823206 -9.362465407
RightToes 2.32829e-010 -1.59028e-015 9.93923e-017
Spine -7.67037 -2.51773 6.47335
Spine1 13.688 -3.46845 3.80072
HEad -9.14405 -0.707546 2.91489
LeftShoulder1 9.93923e-017 0 1.22299e-017
LeftArm 1.10318 36.3486 -82.924
LeftForeArm -14.1159 -7.68597 -7.38561
LeftHand 1.00284 7.13454 -6.18465
RightShoulder 1.98785e-016 -4.96962e-017 1.55301e-017
RightArm 7.34038 -43.5911 85.2189
RightForeArm -27.2352 15.2275 0.003924370001
RightHand 1.18297 -10.6363 -5.35387
LeftUpLeg -12.91585422 -5.820364871 9.000038927
LeftLeg 65.25731614 1.642438744 12.54964358
LeftFoot 7.995594422 29.2843232 -31.96954603
LeftToes 8.82235e-011 9.04645e-011 1.87288e-011
178
root 123.2415816 38.9605 -87.74569768 -2.533156068 14.76121478 -5.987973289
RightUpLeg -5.955085281 6.368367664 22.99103593
RightLeg -3.756911303 0 0
RightFoot 9.290118942 36.57496957 -9.815973506
RightToes 2.32829e-010 -1.59028e-015 9.93923e-017
Spine -7.83645 -1.43061 7.21708
Spine1 13.4939 -1.89804 1.99475
HEad -7.51557 -2.16027 3.22743
LeftShoulder1 9.93923e-017 0 1.22299e-017
LeftArm 3.31971 40.2464 -81.5602
LeftForeArm -12.7848 -8.16886 -7.155
LeftHand 1.03904 7.59664 -7.14162
RightShoulder 1.98785e-016 -4.96962e-017 1.55301e-017
RightArm 13.4859 -40.2862 86.3907
RightForeArm -35.0111 17.704 -4.95831
RightHand 1.18406 -10.5387 -5.75478
LeftUpLeg -17.39368714 -6.744498009 7.12912401
LeftLeg 65.82376254 0.1032840019 12.0273285
LeftFoot 6.655770385 25.11551787 -28.90852808
LeftToes 8.82235e-011 9.04645e-011 1.87288e-011
179
root 123.3273912 39.1443 -86.299049 -2.366582933 12.00853363 -5.034540273
RightUpLeg -2.81988276 5.250657356 22.9762399
RightLeg -3.756911303 0 0
RightFoot 6.256013993 39.77266108 -11.45540633
RightToes 2.32829e-010 -1.59028e-015 9.93923e-017
Spine -7.68166 -0.17435 8.22232
Spine1 13.3304 -0.160738 0.328532
HEad -6.7365 -3.35321 3.01867
LeftShoulder1 9.93923e-017 0 1.22299e-017
LeftArm 5.60205 44.353 -79.4347
LeftForeArm -13.5077 -8.53464 -6.98397
LeftHand 1.03691 7.58639 -7.36546
RightShoulder 1.98785e-016 -4.96962e-017 1.55301e-017
RightArm 23.2456 -37.7105 87.0416
RightForeArm -47.9143 19.9529 -13.667
RightHand 1.16294 -10.4491 -5.53183
LeftUpLeg -21.15954331 -6.904909755 5.630382958
LeftLeg 63.79680549 -1.716209732 9.463047481
LeftFoot 5.57319868 21.68172202 -27.09718676
LeftToes 8.82235e-011 9.04645e-011 1.87288e-011
180
root 123.2391946 39.2712 -84.73350292 -2.239860675 10.01870464 -4.247176336
RightUpLeg 0.1917692034 4.284207163 23.06524767
RightLeg -3.756911303 0 0
RightFoot 2.69655507 42.27558486 -14.53033038
RightToes 2.32829e-010 -1.59028e-015 9.93923e-017
Spine -7.50668 1.16492 9.12466
Spine1 13.1693 1.53409 -1.02202
HEad -6.76522 -4.21988 2.61991
LeftShoulder1 9.93923e-017 0 1.22299e-017
LeftArm 7.35789 48.1467 -76.6541
LeftForeArm -14.7028 -10.3329 -5.82241
LeftHand 1.0147 7.29527 -7.40219
RightShoulder 1.98785e-016 -4.96962e-017 1.55301e-017
RightArm 27.874 -35.0547 86.6223
RightForeArm -54.4254 21.509 -20.8458
RightHand 1.13653 -10.2799 -5.47069
LeftUpLeg -24.33420487 -5.934070658 4.539987874
LeftLeg 59.32558253 -3.282489148 6.604945827
LeftFoot 3.396530272 17.93451684 -25.22532812
LeftToes 8.82235e-011 9.04645e-011 1.87288e-011
181
root 123.1510093 39.3511 -83.19168626 -2.056480456 7.865411924 -3.720228165
RightUpLeg 3.088270769 3.204826365 23.19733175
RightLeg -3.756911303 0 0
RightFoot -1.577923715 44.722215 -18.17131835
RightToes 2.32829e-010 -1.59028e-015 9.93923e-017
Spine -7.5167 2.4629 10.0566
Spine1 13.1436 3.04149 -2.25914
HEad -7.17577 -4.74753 2.14411
LeftShoulder1 9.93923e-017 0 1.22299e-017
LeftArm 9.71386 51.2335 -73.7732
LeftForeArm -17.2206 -12.4679 -4.32667
LeftHand 1.00603 7.18139 -7.52092
RightShoulder 1.98785e-016 -4.96962e-017 1.55301e-017
RightArm 23.4667 -31.7158 85.2526
RightForeArm -49.3998 24.6436 -22.8614
RightHand 1.11765 -10.0563 -5.86373
LeftUpLeg -26.7561593 -3.915259231 3.852586276
LeftLeg 52.1878178 -4.359270212 4.314239975
LeftFoot 1.068835482 14.50091373 -23.3291062
LeftToes 8.82235e-011 9.04645e-011 1.87288e-011
